<?xml version="1.0" encoding="utf-8"?>
<!-- Generator: Adobe Illustrator 23.1.0, SVG Export Plug-In . SVG Version: 6.00 Build 0)  -->
<svg version="1.1" id="Layer_1" xmlns="http://www.w3.org/2000/svg" xmlns:xlink="http://www.w3.org/1999/xlink" x="0px" y="0px"
	 viewBox="0 0 274.1 520.7" style="enable-background:new 0 0 274.1 520.7;" xml:space="preserve">
<style type="text/css">
	.st0{fill:#3FAB35;}
</style>
<g>
	<polygon class="st0" points="250.2,22 24.2,22 15.2,12.7 24.2,3.1 250.2,3.1 259.2,12.7 	"/>
	<polygon class="st0" points="3.4,249.3 3.4,23.3 12.7,14.3 22.3,23.3 22.3,249.3 12.7,258.3 	"/>
	<polygon class="st0" points="251.7,249.3 251.7,23.3 261,14.3 270.7,23.3 270.7,249.3 261,258.3 	"/>
	<polygon class="st0" points="250.2,269.8 24.2,269.8 15.2,260.5 24.2,250.9 250.2,250.9 259.2,260.5 	"/>
	<polygon class="st0" points="250.2,517.6 24.2,517.6 15.2,508.3 24.2,498.7 250.2,498.7 259.2,508.3 	"/>
	<polygon class="st0" points="3.4,497.1 3.4,271.1 12.7,262.1 22.3,271.1 22.3,497.1 12.7,506.1 	"/>
	<polygon class="st0" points="251.7,497.1 251.7,271.1 261,262.1 270.7,271.1 270.7,497.1 261,506.1 	"/>
</g>
</svg>
